<?xml version="1.0" encoding="utf-8"?>
<!-- Generator: Adobe Illustrator 25.0.0, SVG Export Plug-In . SVG Version: 6.00 Build 0)  -->
<svg version="1.1" id="Layer_1" xmlns="http://www.w3.org/2000/svg" xmlns:xlink="http://www.w3.org/1999/xlink" x="0px" y="0px"
	 viewBox="0 0 215.1 155.5" style="enable-background:new 0 0 215.1 155.5;" xml:space="preserve">
<g>
	<g>
		<rect id="SVGID_1_" x="0" y="0" style="fill:#F8F4F1;" width="215.1" height="155.6"/>
	</g>
	<g>
		<defs>
			<rect id="SVGID_2_" x="0" y="0" width="215.1" height="155.6"/>
		</defs>
		<clipPath id="SVGID_3_">
			<use xlink:href="#SVGID_2_"  style="overflow:visible;"/>
		</clipPath>
		<path style="clip-path:url(#SVGID_3_);fill:#D8C0A6;" d="M-14,112.8c3.8,0,8.4-0.8,12,0c5.7,1.2,7.1,4.3,12.2,6.3
			c8.3,3.3,10-2.1,16.7-4.3c6.9-2.3,13.4,0.6,20.3-3.1c2.1-1.1,3.3-3.6,5.4-4.7c3.7-1.9,8-1.2,11.8-2.9c7-3,8.8-7.7,16-9.7
			c6.6-1.8,10.8-1,16.6,2.2c6,3.3,9.8,8.5,16,10c4.9,1.2,8,0.1,12.4,2.5c6.5,3.5,8.1,6.4,15.2,8.1c5.9,1.5,12,2.9,18.4,1
			c4.9-1.4,8.2-4.6,13.5-5.4c9.2-1.4,8.9-1.7,16.1-7.6c4.3-3.5,9.7-4.9,14.1-7.3c6.4-3.5,8.8-7.6,17.2-6.4c9.3,1.3,8,5.9,9.3,15.2
			c2.8,19,10.1,40,6.4,59.4c-1.8,9.4-7.6,12.1-16.4,16.1c-34.5,15.7-68.8,24.8-106.9,27.1c-42.5,2.5-83.5-0.8-118.5-27
			c-14-10.5-14.8-27.2-14.3-43.8C-20,129.8-16.5,124.6-14,112.8z"/>
	</g>
	<g>
		<defs>
			<rect id="SVGID_4_" x="0" y="0" width="215.1" height="155.6"/>
		</defs>
		<clipPath id="SVGID_5_">
			<use xlink:href="#SVGID_4_"  style="overflow:visible;"/>
		</clipPath>
		<path style="clip-path:url(#SVGID_5_);fill:#325434;" d="M11.8,159.9c4.3-2.7,9.9-5.4,14.9-6.5c5.3-1.1,11.8,1,16.9-0.6
			c9.4-2.9,10.4-13,20.8-15.8c4.9-1.3,10.2-0.5,14.9-2.7c6.3-2.9,7.6-8.8,12.9-12.2c9.1-5.8,22.6-1.3,32.6-0.4
			c13.2,1.1,18,0.6,30.1,7.8c7.4,4.4,14.5,2.8,22.6,5.5c10.1,3.4,18.1,12.7,27.9,17.5c9.8,4.8,25.9,19.8,15.2,28
			c-3.9,3-17.2,3.8-21.4,4.5c-19,3.1-40,3.1-59.3,4c-26.3,1.3-49.3-1.8-74.6-8.1C57.4,179.1,9.9,177.3,11.8,159.9z"/>
	</g>
	<g>
		<defs>
			<rect id="SVGID_6_" x="0" y="0" width="215.1" height="155.6"/>
		</defs>
		<clipPath id="SVGID_7_">
			<use xlink:href="#SVGID_6_"  style="overflow:visible;"/>
		</clipPath>
		<g style="clip-path:url(#SVGID_7_);">
			<path style="fill:#8D7B76;" d="M228.9,88.9l-0.5-0.1c-1.9,7.5-7.8,30.4-21,34.2c-8,2.3-15.8-3.9-22-8.9c-0.9-0.8-1.8-1.5-2.7-2.1
				c-9.7-7.5-20.6-15.9-35-12.3c-3.2,0.8-5.6,2.9-8,5c-2.4,2.2-4.8,4.2-7.9,4.8c-8.1,1.5-20.4-5.1-26.2-8.3
				c-15.1-8.2-26.4,1.3-37.4,10.5c-5.3,4.4-10.7,8.9-16.5,11.5s-12.4,3.5-18.9,4.4c-2.9,0.4-5.9,0.8-8.8,1.4
				c-7.4,1.5-23.6-0.3-28.1-7.5l-0.4,0.3c4.6,7.4,21.1,9.2,28.6,7.7c2.8-0.6,5.7-1,8.7-1.4c6.5-0.9,13.2-1.8,19-4.4
				c5.9-2.6,11.3-7.2,16.6-11.6c11.3-9.5,22-18.4,36.8-10.4c5.9,3.2,18.3,9.9,26.6,8.4c3.3-0.6,5.7-2.8,8.1-4.9
				c2.3-2,4.7-4.1,7.8-4.9c14.1-3.5,25,4.8,34.6,12.2c0.9,0.7,1.8,1.4,2.7,2.1c6.3,5.1,14.1,11.4,22.4,9
				C221.1,119.6,227,96.5,228.9,88.9z"/>
		</g>
	</g>
</g>
</svg>
