<?xml version="1.0" encoding="iso-8859-1"?>
<!-- Generator: Adobe Illustrator 19.0.0, SVG Export Plug-In . SVG Version: 6.00 Build 0)  -->
<svg version="1.1" id="Layer_1" xmlns="http://www.w3.org/2000/svg" xmlns:xlink="http://www.w3.org/1999/xlink" x="0px" y="0px"
	 viewBox="0 0 512 512" style="enable-background:new 0 0 512 512;" xml:space="preserve">
<path style="fill:#FED159;" d="M456.618,144.979c0,40.949-32.317,74.352-72.848,76.083l-54.785-19.961
	c-15.162-13.92-24.677-33.905-24.677-56.122c0-42.059,34.096-76.155,76.155-76.155S456.618,102.921,456.618,144.979z"/>
<g>
	<polygon style="fill:#E6E6E6;" points="250.753,138.234 288.347,203.334 259.814,281.196 218.018,194.941 	"/>
	<polygon style="fill:#E6E6E6;" points="190.309,242.933 253.618,281.196 205.865,353.017 115.133,341.079 106.645,258.453 
		152.954,178.24 170.886,209.279 	"/>
</g>
<polygon style="fill:#999999;" points="418.021,280.384 442.471,262.309 512,443.175 426.82,443.175 0,443.175 106.645,258.453 
	140.395,292.203 161.335,271.263 212.395,281.196 190.309,242.933 218.018,194.941 259.814,231.867 288.347,203.334 
	308.021,237.406 328.985,201.102 350.617,163.627 383.77,221.062 "/>
<g>
	<polyline style="fill:#808080;" points="140.395,292.203 116.327,443.175 0,443.175 106.645,258.453 	"/>
	<polygon style="fill:#808080;" points="221.368,296.731 266.75,372.118 218.018,194.941 190.309,242.933 	"/>
	<polygon style="fill:#808080;" points="322.752,211.896 371.808,287.356 350.617,163.627 350.617,163.627 	"/>
	<polygon style="fill:#808080;" points="418.021,280.384 449.407,342.273 442.471,262.309 	"/>
</g>
<g>
</g>
<g>
</g>
<g>
</g>
<g>
</g>
<g>
</g>
<g>
</g>
<g>
</g>
<g>
</g>
<g>
</g>
<g>
</g>
<g>
</g>
<g>
</g>
<g>
</g>
<g>
</g>
<g>
</g>
</svg>
