<?xml version="1.0" encoding="utf-8"?>
<!-- Generator: Adobe Illustrator 25.0.0, SVG Export Plug-In . SVG Version: 6.00 Build 0)  -->
<svg version="1.1" id="Capa_1" xmlns="http://www.w3.org/2000/svg" xmlns:xlink="http://www.w3.org/1999/xlink" x="0px" y="0px"
	 viewBox="0 0 512 512" style="enable-background:new 0 0 512 512;" xml:space="preserve">
<style type="text/css">
	.st0{fill:#FFCF11;}
	.st1{fill:#FFE854;}
	.st2{fill:#0C99E6;}
	.st3{fill:#743D2B;}
	.st4{fill:#3E4A68;}
	.st5{fill:#303A59;}
</style>
<g>
	<g>
		<circle class="st0" cx="256" cy="256" r="256"/>
	</g>
	<g>
		<circle class="st1" cx="256" cy="256" r="175"/>
	</g>
	<g>
		<g>
			<path class="st2" d="M321.3,411.2L256,390l-65.3,21.2c0,0-198.4-0.6-160.2,79.5H256h225.4C519.7,410.7,321.3,411.2,321.3,411.2z"
				/>
		</g>
		<g>
			<path class="st3" d="M481.4,490.7c-6.2,12.6-51.2,24.4-138.2,18S176.5,484,176.5,484v-14.3c0,0,162.5-16.8,223.7-15.7
				C461.3,455,487.8,477.7,481.4,490.7z"/>
		</g>
		<g>
			<path class="st3" d="M404,455.3c0-0.4,0-0.8,0-1.2c-1.3,0-2.6-0.1-3.9-0.1c-61.1-1.1-223.7,15.7-223.7,15.7V484
				c0,0,46.1,10.6,106.4,18.5c6.4-1.4,12.8-2.8,19.1-4.2c25.1-5.6,46.4-10.8,61.6-14.9c8.5-2.3,14.9-4.2,19.7-5.9
				C389.2,475.4,403.1,470.5,404,455.3L404,455.3z"/>
		</g>
		<g>
			<path class="st3" d="M30.6,490.7c6.8,12.3,34.3,30,118.4,16.3s233.6-46.9,233.9-52.9s-13.8-17.4-32.2-17.4s-21.2,5.3-31.8,5.3
				s-24-16.7-35.3-14.4s-18,25.3-18,25.3s-107.1-7.1-164-3.5S22.8,476.6,30.6,490.7L30.6,490.7z"/>
		</g>
		<g>
			<g>
				<path class="st3" d="M73,490.7c-7.8-14.1,14.1-37.8,71-41.3c5.9-0.4,12.4-0.6,19.2-0.8c-22.2-0.4-44.2-0.3-61.6,0.8
					c-56.9,3.5-78.8,27.2-71,41.3c5.8,10.6,27.1,25.2,86.7,20.3C89.1,507.9,77.1,498.3,73,490.7z"/>
			</g>
		</g>
		<g>
			<path class="st3" d="M20.6,417.6c0,0,0-13.1,0-16.4s4.9-3.7,6.4,0s1,16.8,3.1,20.4v6.1L20.6,417.6z"/>
		</g>
		<g>
			<path class="st3" d="M491.4,417.6c0,0,0-13.1,0-16.4s-4.9-3.7-6.4,0s-1,16.8-3.1,20.4v6.1L491.4,417.6z"/>
		</g>
		<g>
			<path class="st3" d="M501.2,408.4c-0.8-2.3-4.2-1.3-6.9,1.6c-1.9,2-8.9,8.5-13.4,12.6c-2.2,2-5.6,2-7.9,0.1
				c-3.2-2.7-2.7-7.8,0.9-9.8c5.2-2.9,11.3-6.9,12.4-10c2.1-5.7-3-6.4-5.8-4.4c-2.8,2-37.9,11.7-37.9,11.7l-58.2-78.4
				c0,0-3.5-113.1-17.7-124.7c-14.1-11.7-87.5-24-87.5-24v-25.4H256h-23.3V183c0,0-73.4,12.4-87.5,24s-17.7,124.7-17.7,124.7
				l-58.2,78.4c0,0-35.1-9.7-37.9-11.7s-8-1.3-5.8,4.4c1.2,3.2,7.3,7.1,12.4,10c3.6,2,4.1,7.1,0.9,9.8c-2.3,1.9-5.6,1.9-7.9-0.1
				c-4.6-4.1-11.6-10.5-13.4-12.6c-2.6-2.9-6.1-3.8-6.9-1.6s11,19.2,13.8,23.1s15,11.8,22.5,10.3S81,426.1,81,426.1
				s75.6-56.9,82.7-77s12.7-88.1,12.7-88.1h159.2c0,0,5.7,67.9,12.7,88.1s82.7,77,82.7,77s26.3,14.3,33.9,15.8s19.7-6.5,22.5-10.3
				C490.2,427.7,502,410.7,501.2,408.4z"/>
		</g>
		<g>
			<path class="st3" d="M232.7,183c0,0,35.7,2.8,39.2-25.4h-39.2V183z"/>
		</g>
		<g>
			<g>
				<path d="M300.7,76.7c0,0,2.5-18.5-6.4-28.8c-1.3-1.5-3.9-0.5-3.7,1.5l0.1,1.3c0,0-5.1-10-18.2-13.9c-1.8-0.5-3.4,1.5-2.4,3.1
					l0.6,1c0,0-7.9-7.9-34.1-8.5c-1.9,0-2.9,2.3-1.5,3.6l1.5,1.4c0,0-9.9,1.7-23,9.7c-1.6,1-1.2,3.4,0.6,3.8l1.1,0.2
					c-5.1,5.8-7.9,11.9-9.3,15.8c-0.6,1.7,1,3.3,2.7,2.7s-4,18.7,0.9,34.7l46.5,10.5l46.5-10.5C302.5,104.6,305.3,91.1,300.7,76.7
					L300.7,76.7z"/>
			</g>
			<g>
				<path d="M237,75.7c-13.7-2.9-23.4-8.3-28.3-5.9c0,0-4,18.7,0.9,34.7l28.7,6.5L237,75.7z"/>
			</g>
			<g>
				<path class="st3" d="M291.5,113.5c0,0,4.6-11.1,12.7-8.5c8.1,2.6-0.2,26.7-16.1,28.2L291.5,113.5z"/>
			</g>
			<g>
				<path class="st3" d="M220.5,113.5c0,0-4.6-11.1-12.7-8.5c-8.1,2.6,0.2,26.7,16.1,28.2L220.5,113.5z"/>
			</g>
			<g>
				<path class="st3" d="M292.6,99.4c-0.5-1.1-0.8-2.8-1.2-4.6L256,84.5l-35.4,10.3c-0.4,1.9-0.7,3.5-1.2,4.6
					c-2.1,5.1-4.7,6.1-5.1,6.3c0,0.8,0,1.6,0,2.4c0,30.7,18.7,66.7,41.7,66.7s41.7-36,41.7-66.7c0-0.8,0-1.6,0-2.4
					C297.3,105.6,294.7,104.5,292.6,99.4z"/>
			</g>
			<g>
				<path class="st3" d="M228.6,108.1c0-5.7,0.7-11.1,1.9-16.2l-9.9,2.9c-0.4,1.9-0.7,3.5-1.2,4.6c-2.1,5.1-4.7,6.1-5.1,6.3
					c0,0.8,0,1.6,0,2.4c0,30.7,18.7,66.7,41.7,66.7c2.4,0,4.8-0.4,7.2-1.2C243.6,167.2,228.6,135.6,228.6,108.1L228.6,108.1z"/>
			</g>
			<g>
				<path class="st3" d="M256,78.9c-14.6,0-20.4-4.6-25.5-4.6h0c-0.9,0-1.8,0.2-2.8,0.5c-4.7,1.9-5.8,12.8-7.2,20h70.8
					c-1.4-7.2-2.4-18.1-7.2-20c-0.9-0.4-1.8-0.5-2.8-0.5h0C276.4,74.3,270.6,78.9,256,78.9L256,78.9z"/>
			</g>
			<g>
				<path class="st3" d="M248.1,86.9c0-4.4,3.6-7.9,7.9-7.9c-14.6,0-20.4-4.6-25.5-4.6h0c-0.9,0-1.8,0.2-2.8,0.5
					c-4.7,1.9-5.8,12.8-7.2,20H256C251.6,94.8,248.1,91.2,248.1,86.9z"/>
			</g>
		</g>
		<g>
			<path class="st4" d="M335.6,261l-12.3,42.2c-1.3,4.6-2,9.3-2,14v94.1H190.7v-94.1c0-4.8-0.7-9.5-2-14L176.4,261
				c6.5,0,11.7-5.2,11.7-11.7V192c10.1-2.4,20.1-4.5,28.1-6v27.2c0,22,17.8,39.8,39.8,39.8s39.8-17.8,39.8-39.8V186
				c8,1.6,18,3.6,28.1,6v57.2C323.9,255.7,329.1,261,335.6,261z"/>
		</g>
		<g>
			<path class="st5" d="M254.6,307c-37.4,0-48.8-5.5-55.5-14.9L176.4,261l12.3,42.2c1.3,4.6,2,9.3,2,14v94.1H212v-90.7
				c0-2.8-0.4-5.5-1.1-8.1C242.6,311.6,254.6,307,254.6,307L254.6,307z"/>
		</g>
	</g>
</g>
</svg>
